# xmcd CD database file
#
# Track frame offsets:
#	150
#	17187
#	28817
#
# Disc length: 559 seconds
#
# Revision: 0
# Processed by: cddbd v1.5.1PL0 Copyright (c) Steve Scherf et al.
# Submitted via: CDex 1.51
#
DISCID=1e022d03
DTITLE=明治大学 - 明治大学CD
DYEAR=2000
DGENRE=Trip-Hop
TTITLE0=明治大学校歌
TTITLE1=応援歌　紫紺の歌
TTITLE2=学生歌　都に匂う花の雲
EXTD=YEAR: 20002
EXTT0=
EXTT1=
EXTT2=
PLAYORDER=
